<?xml version="1.0" encoding="UTF-8"?><svg id="Layer_2" xmlns="http://www.w3.org/2000/svg" viewBox="0 0 2310.61 3002.48"><g id="Layer_1-2"><path d="m2102.46,3000.46c-3.1.83-5.01,1.78-6.91,1.78-625.94.14-1251.89.21-1877.83.24-3.25,0-6.5-.66-10.73-1.12-.87-3.96-2.14-7.64-2.4-11.39-.41-5.97-.17-11.99-.17-17.99,0-753.27,0-1506.54.01-2259.81,0-8.58.21-17.16.34-26.59,5.56-1.08,9.92-2.34,14.34-2.67,5.97-.45,11.99-.22,17.99-.22,611.95,0,1223.9,0,1835.85.03,9.25,0,18.51.47,28.51.74,1.12,4.62,2.55,8.3,2.82,12.06.47,6.64.28,13.32.28,19.99,0,751.27.01,1502.54-.04,2253.81,0,10.5,1.15,21.19-2.05,31.14Zm-536.09-1265.15c0,224.56,0,449.13,0,673.69,0,8-.29,16.02.23,23.98,1.45,22.23,18.78,38.88,40.3,39.12,20.44.23,38.45-15.37,41.29-36.23.8-5.9.48-11.97.48-17.97.02-454.46.02-908.92,0-1363.38,0-4.66.17-9.35-.23-13.99-2.01-23.38-19.61-38.94-42.6-38.75-22.97.19-40.05,21.38-39.41,39.83.28,7.99-.07,15.99-.07,23.99,0,223.23,0,446.46,0,669.7Zm-824.4,2.62c0-225.21,0-450.43-.03-675.64,0-8.66.25-17.38-.7-25.95-2.05-18.59-17.4-32.9-35.93-34.34-21.81-1.7-39.39,10.7-43.84,32.2-1.87,9.01-1.82,18.51-1.82,27.79-.08,448.43-.07,896.85-.07,1345.28,0,6-.31,12.02.13,17.98.44,5.94.99,12.01,2.62,17.7,5.35,18.67,23.75,30.95,42.66,29.03,19.4-1.98,34.67-16.96,36.43-36.45.78-8.6.51-17.31.51-25.97.02-223.88.02-447.76.02-671.64Zm371.54-.3c0,223.88,0,447.76.03,671.64,0,9.32-.29,18.72.74,27.95,2.04,18.32,17.36,32.71,35.93,34.76,17.9,1.97,36.64-9.54,42.33-26.82,2.05-6.23,2.67-13.02,3.21-19.62.54-6.62.17-13.32.17-19.98,0-446.43,0-892.85,0-1339.28,0-6,.3-12.02-.13-17.98-.43-5.94-.96-12.02-2.6-17.7-5.47-18.99-22.38-29.76-42.7-28.71-17.36.89-35.91,17.05-36.51,36.14-.27,8.65-.44,17.32-.44,25.97-.02,224.55-.02,449.09-.02,673.64Z"/><path d="m2307.54,270.89c.81,7.84,1.7,13.01,1.82,18.19,2.43,107.14,1.16,269.73-2.34,288.55-3.33.84-7.02,2.33-10.81,2.61-6.63.49-13.32.3-19.98.3-747.85,0-1495.7.01-2243.56-.04-9.88,0-19.76-.67-30.48-1.06-.86-5.71-2.1-10.12-2.1-14.54-.11-92.65-.11-185.3-.03-277.95,0-4.56.87-9.12,1.39-14.22,4.37-.93,8.15-2.24,12-2.46,7.31-.41,14.66-.24,21.99-.24,264.61,0,529.23,0,793.84-.03,9.26,0,18.51-.42,26.86-.62,6.5-7.54,4.23-15.21,4.25-22.25.2-62.65.11-125.31.12-187.96,0-6-.5-12.08.3-17.97.79-5.84,2.04-11.95,4.67-17.15,7.09-14.04,18.84-22.19,34.65-23.64,6.62-.61,13.32-.34,19.98-.34,155.97-.01,311.94-.01,467.91,0,6,0,12,.18,18,.09,19.68-.28,41.15,17.8,41.69,40.63.19,7.99.56,15.99.57,23.98.05,59.32-.01,118.64.08,177.96.01,7.87.68,15.75,1.08,24.43,5.61,1.08,9.99,2.42,14.43,2.68,7.31.43,14.66.19,21.99.19,263.95,0,527.89,0,791.84.04,9.22,0,18.44.5,29.85.83Z"/></g></svg>