<?xml version="1.0" encoding="UTF-8"?><svg id="Layer_2" xmlns="http://www.w3.org/2000/svg" viewBox="0 0 192.62 192.58"><defs><style>.cls-1{fill:#fff;}</style></defs><g id="Layer_1-2"><path class="cls-1" d="m95.56,52.46c-25.58.27-44.61,21.22-43.19,46.44,1.21,21.58,18.35,40.52,43.42,41.41,23.64-.3,44.24-17.46,44.32-43.91.08-25.48-18.99-44.21-44.55-43.95Z"/><path class="cls-1" d="m183.48,87.3c-5.63-.18-11.28-.19-16.91,0-5.37.19-9.36,4.15-9.4,8.9-.04,4.76,3.92,8.76,9.22,9.09,2.81.17,5.64.03,8.46.03,2.82,0,5.64.11,8.46-.02,5.55-.24,9.28-3.88,9.31-8.93.03-5.08-3.65-8.91-9.14-9.08Z"/><path class="cls-1" d="m95.6,35.43c5.82-.24,9.47-3.85,9.73-9.73.11-2.66.02-5.33.02-8,0-2.83.12-5.67-.03-8.5C105.02,3.62,101.33-.04,96.23,0c-5.08.04-8.77,3.77-8.92,9.37-.15,5.49-.16,11,0,16.49.15,5.18,4.25,9.74,8.29,9.57Z"/><path class="cls-1" d="m35.28,96.25c-.04-4.76-3.7-8.71-8.85-8.93-5.98-.25-11.98-.26-17.95.01C3.52,87.57.09,91.41,0,96.08c-.09,4.91,3.4,8.79,8.55,9.18,2.98.23,5.98.04,8.98.04s6,.18,8.98-.04c5.12-.38,8.81-4.3,8.77-9.02Z"/><path class="cls-1" d="m95.17,158.14c-4.86.01-7.49,2.6-7.86,8.07-.2,2.98-.04,5.98-.04,8.97,0,2.83-.14,5.66.03,8.47.31,5.26,3.95,8.84,8.83,8.92,4.92.08,8.89-3.4,9.13-8.58.27-5.8.25-11.64.02-17.44-.2-5.06-4.49-8.43-10.12-8.42Z"/><path class="cls-1" d="m41.8,54.03c2.69,2.33,6.14,2.18,9.35.49,3.1-1.64,4.4-4.35,4.45-8.44-.16-.63-.16-2.12-.87-3.12-3.66-5.17-8.01-9.83-13.28-13.28-3.48-2.28-7.44-1.32-10.34,1.86-3.03,3.32-3.68,7.38-.86,10.85,3.43,4.23,7.42,8.07,11.54,11.64Z"/><path class="cls-1" d="m150.9,53.98c4.01-3.45,7.6-7.4,11.3-11.2,1.47-1.51,1.41-3.65,1.85-5.27-.41-3.62-1.94-6.31-4.95-7.86-3-1.54-6.32-1.68-8.88.56-4.11,3.59-8.06,7.43-11.63,11.56-2.77,3.21-2.03,8.43.92,11.36,2.92,2.89,8.21,3.59,11.39.86Z"/><path class="cls-1" d="m149.12,137.67c-3.33-1.92-7.23-.93-9.93,2.17-2.66,3.05-3.27,6.79-1.06,10.11,3.31,4.98,7.74,9.09,12.52,12.65,2.67,1.99,5.93,1.81,8.88.06,2.96-1.75,4.23-4.53,4.5-7.86-.27-1.12-.22-2.47-.84-3.34-3.88-5.41-8.3-10.48-14.06-13.8Z"/><path class="cls-1" d="m50.91,137.94c-3.24-1.6-6.66-1.61-9.34.75-3.97,3.49-7.82,7.22-11.17,11.3-2.82,3.44-2.47,7.5.56,10.85,3,3.32,7.1,4.34,10.76,1.88,5.08-3.4,9.28-7.96,12.96-12.9.96-1.28.83-2.82.95-4.3-.13-3.44-1.61-6.05-4.73-7.59Z"/></g></svg>