<?xml version="1.0" encoding="UTF-8"?><svg id="Layer_2" xmlns="http://www.w3.org/2000/svg" viewBox="0 0 188.43 188.43"><defs><style>.cls-1{fill:#fff;}</style></defs><g id="Layer_1-2"><path class="cls-1" d="m94.21,0C42.18,0,0,42.18,0,94.21s42.18,94.21,94.21,94.21,94.21-42.18,94.21-94.21S146.25,0,94.21,0Zm9.49,145.92c-2.58,2.58-5.7,3.87-9.34,3.87s-6.73-1.29-9.26-3.87c-2.53-2.58-3.8-5.69-3.8-9.34s1.26-6.73,3.8-9.26c2.53-2.53,5.62-3.8,9.26-3.8s6.76,1.27,9.34,3.8c2.58,2.53,3.87,5.62,3.87,9.26s-1.29,6.76-3.87,9.34Zm22.1-70.54c-.71,2.33-1.67,4.51-2.89,6.53-1.21,2.03-2.63,3.93-4.25,5.7-1.62,1.77-3.34,3.52-5.16,5.24-1.72,1.62-3.17,3.09-4.33,4.4-1.16,1.32-2.08,2.61-2.73,3.87-.66,1.27-1.14,2.61-1.44,4.02-.3,1.42-.46,3.04-.46,4.86v2.43h-19.9v-5.01c0-2.43.25-4.68.76-6.76.5-2.07,1.29-4.07,2.35-6,1.06-1.92,2.48-3.85,4.25-5.77,1.77-1.92,3.97-4,6.61-6.23,2.73-2.43,4.86-4.66,6.38-6.68,1.52-2.02,2.28-4.5,2.28-7.44s-1.14-5.72-3.42-8.05c-2.28-2.33-5.39-3.49-9.34-3.49-2.13,0-4.05.36-5.77,1.06-1.72.71-3.24,1.67-4.56,2.89-1.32,1.21-2.41,2.58-3.26,4.1-.86,1.52-1.5,3.09-1.9,4.71l-17.46-7.29c.81-2.83,2.1-5.67,3.87-8.5,1.77-2.83,4-5.39,6.68-7.67,2.68-2.28,5.85-4.12,9.49-5.54,3.64-1.42,7.75-2.13,12.3-2.13,4.86,0,9.31.74,13.37,2.2,4.05,1.47,7.52,3.49,10.4,6.07,2.89,2.58,5.14,5.65,6.76,9.19,1.62,3.55,2.43,7.34,2.43,11.39,0,2.94-.36,5.57-1.06,7.9Z"/></g></svg>