<?xml version="1.0" encoding="UTF-8"?><svg id="Layer_2" xmlns="http://www.w3.org/2000/svg" viewBox="0 0 63.1 70.09"><defs><style>.cls-1{fill:#f9a124;}</style></defs><g id="Layer_1-2"><path class="cls-1" d="m19.98,1.6v7.58c.31-.24.5-.37.69-.53,4.16-3.51,8.72-6.29,14.03-7.67,5.76-1.49,11.46-1.45,16.91,1.21,5.43,2.65,8.69,7.17,10.46,12.84.72,2.31,1.04,4.68,1.04,7.11-.02,10.35,0,20.69-.01,31.04,0,3.94-.92,7.63-3.43,10.77-2.25,2.82-5.25,4.42-8.81,4.65-3.39.22-6.8.1-10.2.13-.11,0-.23-.03-.41-.06,0-.27,0-.52,0-.78,0-8.95,0-17.9,0-26.86,0-6.09,3.98-10.54,10.04-11.24.82-.09,1.64-.15,2.52-.22v-11.47c-6.04-.6-10.73,1.61-13.96,6.86-.04-.04-.09-.07-.13-.11v-7.35c-1.61.18-3.13.29-4.63.54-3.22.54-6.25,1.63-8.85,3.67-3.15,2.47-4.86,5.77-5.08,9.72-.19,3.53-.13,7.08-.14,10.62-.02,5.2.03,10.39-.04,15.59-.07,5.75-4.36,10.91-9.99,12.09-.94.2-1.91.28-2.87.3-2.33.04-4.67.01-7.11.01,0-.3,0-.55,0-.8C0,52.65,0,36.02,0,19.4,0,11.08,6.39,3.45,14.59,2.06c1.75-.3,3.55-.31,5.39-.45Z"/></g></svg>