<?xml version="1.0" encoding="UTF-8"?><svg id="Layer_2" xmlns="http://www.w3.org/2000/svg" viewBox="0 0 478.94 74.41"><defs><style>.cls-1{fill:#f9a124;}</style></defs><g id="Layer_1-2"><path class="cls-1" d="m45.02,20.78v-5.77c0-.69-.56-1.24-1.24-1.24H15.54c-.69,0-1.24.56-1.24,1.24v4.12c0,.69.56,1.24,1.24,1.24h12.87s.06,0,.09,0l5.88-.43v.43l-19.47,11.4c-.38.22-.61.63-.61,1.07v5.08h0c0,.7.56,1.25,1.24,1.25h8.59c.69,0,1.24.56,1.24,1.24,0,.4-.2.78-.53,1.02l-10.01,7.02c-.33.23-.53.61-.53,1.02v6.99h.43l11.46-8.02h.39c.37.86.84,1.66,1.39,2.4.56.74,1.2,1.39,1.93,1.95.73.56,1.52,1,2.38,1.33.86.33,1.79.49,2.79.49,1.43,0,2.75-.24,3.97-.71,1.22-.47,2.27-1.16,3.15-2.06.89-.9,1.58-2.01,2.08-3.33.5-1.32.75-2.8.75-4.46v-10.34c0-.69-.56-1.24-1.24-1.24h-17.59l18.22-10.63c.38-.22.62-.63.62-1.07Zm-6.18,23.29c0,1.29-.35,2.25-1.05,2.9-.7.64-1.57.97-2.6.97s-1.9-.34-2.6-1.03c-.7-.69-1.05-1.63-1.05-2.83v-3.65c0-.69.56-1.24,1.24-1.24h4.81c.69,0,1.24.56,1.24,1.24v3.65Z"/><path class="cls-1" d="m58,67.93H2.49c-1.38,0-2.49-1.12-2.49-2.49V2.49C0,1.12,1.12,0,2.49,0h55.51c1.38,0,2.49,1.12,2.49,2.49v62.94c0,1.38-1.12,2.49-2.49,2.49Zm-48.07-7.43h40.64c1.38,0,2.49-1.12,2.49-2.49V9.93c0-1.38-1.12-2.49-2.49-2.49H9.93c-1.38,0-2.49,1.12-2.49,2.49v48.07c0,1.38,1.12,2.49,2.49,2.49Z"/><polygon class="cls-1" points="110.7 43.1 90.15 11.99 81.08 11.99 81.08 57.3 90.15 57.3 90.15 26.25 110.7 57.3 119.78 57.3 119.78 11.99 110.7 11.99 110.7 43.1"/><path class="cls-1" d="m153.58,23.01c-2.7-1.47-5.76-2.2-9.17-2.2s-6.68.76-9.4,2.27c-2.72,1.51-4.84,3.67-6.35,6.48-1.51,2.81-2.27,6.07-2.27,9.79s.77,6.91,2.3,9.72c1.53,2.81,3.67,4.98,6.42,6.51,2.74,1.53,5.84,2.3,9.3,2.3,4.28,0,7.89-1.11,10.82-3.34,2.94-2.23,4.93-5.07,5.96-8.52h-9.79c-1.43,2.9-3.82,4.34-7.19,4.34-2.33,0-4.3-.73-5.9-2.2-1.6-1.47-2.51-3.5-2.72-6.09h26.25c.17-1.04.26-2.2.26-3.5,0-3.5-.75-6.6-2.24-9.3-1.49-2.7-3.59-4.79-6.29-6.26Zm-17.92,12.96c.35-2.42,1.28-4.31,2.82-5.67,1.53-1.36,3.42-2.04,5.67-2.04,2.38,0,4.39.7,6.03,2.11,1.64,1.4,2.48,3.27,2.53,5.61h-17.05Z"/><path class="cls-1" d="m194.64,26.51c-1.21-1.64-2.82-3-4.83-4.08-2.01-1.08-4.35-1.62-7.03-1.62-3.07,0-5.85.76-8.33,2.27-2.49,1.51-4.45,3.67-5.9,6.48-1.45,2.81-2.17,6.03-2.17,9.66s.72,6.93,2.17,9.76c1.45,2.83,3.41,5.02,5.9,6.58,2.48,1.56,5.24,2.33,8.26,2.33,2.68,0,5.04-.55,7.1-1.65,2.05-1.1,3.66-2.5,4.83-4.18v5.25h9.14V21.39h-9.14v5.12Zm-1.3,18.51c-.86,1.58-2.03,2.79-3.5,3.63-1.47.84-3.05,1.26-4.73,1.26s-3.19-.43-4.63-1.3c-1.45-.86-2.61-2.11-3.5-3.73-.89-1.62-1.33-3.51-1.33-5.67s.44-4.03,1.33-5.61c.89-1.58,2.04-2.78,3.47-3.6,1.43-.82,2.98-1.23,4.67-1.23s3.26.42,4.73,1.26c1.47.84,2.64,2.05,3.5,3.63.86,1.58,1.3,3.47,1.3,5.67s-.43,4.09-1.3,5.67Z"/><path class="cls-1" d="m223.23,12.51h-9.14v8.88h-4.28v7.45h4.28v17.31c0,7.43,3.82,11.15,11.47,11.15h5.7v-7.65h-4.21c-1.38,0-2.37-.27-2.95-.81-.58-.54-.88-1.42-.88-2.63v-17.37h8.04v-7.45h-8.04v-8.88Z"/><path class="cls-1" d="m268.54,34c1.73-2.4,2.59-5.09,2.59-8.07,0-2.59-.62-4.94-1.85-7.03-1.23-2.1-3.08-3.76-5.54-4.99-2.46-1.23-5.44-1.85-8.95-1.85h-16.98v45.25h9.07v-17.63h4.28l9.98,17.63h10.5l-10.83-18.34c3.41-.91,5.98-2.56,7.71-4.96Zm-14.07-1.13h-7.58v-13.29h7.58c2.46,0,4.3.57,5.51,1.72,1.21,1.15,1.81,2.75,1.81,4.83s-.61,3.77-1.81,4.96c-1.21,1.19-3.05,1.78-5.51,1.78Z"/><path class="cls-1" d="m304.22,23.01c-2.7-1.47-5.76-2.2-9.17-2.2s-6.68.76-9.4,2.27c-2.72,1.51-4.84,3.67-6.35,6.48-1.51,2.81-2.27,6.07-2.27,9.79s.77,6.91,2.3,9.72c1.53,2.81,3.67,4.98,6.42,6.51,2.74,1.53,5.84,2.3,9.3,2.3,4.28,0,7.89-1.11,10.83-3.34,2.94-2.23,4.93-5.07,5.96-8.52h-9.79c-1.43,2.9-3.82,4.34-7.19,4.34-2.33,0-4.3-.73-5.9-2.2-1.6-1.47-2.51-3.5-2.72-6.09h26.25c.17-1.04.26-2.2.26-3.5,0-3.5-.75-6.6-2.24-9.3-1.49-2.7-3.59-4.79-6.29-6.26Zm-17.92,12.96c.35-2.42,1.29-4.31,2.82-5.67,1.53-1.36,3.42-2.04,5.67-2.04,2.38,0,4.39.7,6.03,2.11,1.64,1.4,2.48,3.27,2.53,5.61h-17.05Z"/><path class="cls-1" d="m334.72,28.52c1.82,0,3.34.44,4.57,1.33,1.23.89,2.11,2.11,2.63,3.66h9.79c-.99-4.02-2.95-7.14-5.87-9.37-2.92-2.23-6.6-3.34-11.05-3.34-3.46,0-6.53.77-9.2,2.3-2.68,1.53-4.78,3.69-6.29,6.48-1.51,2.79-2.27,6.04-2.27,9.76s.76,6.97,2.27,9.76c1.51,2.79,3.61,4.95,6.29,6.48,2.68,1.53,5.75,2.3,9.2,2.3,4.41,0,8.08-1.14,11.02-3.44,2.94-2.29,4.9-5.38,5.9-9.27h-9.79c-1.12,3.28-3.52,4.93-7.2,4.93-2.59,0-4.65-.94-6.16-2.82-1.51-1.88-2.27-4.53-2.27-7.94s.76-6.13,2.27-8.01c1.51-1.88,3.56-2.82,6.16-2.82Z"/><path class="cls-1" d="m383.24,23.01c-2.7-1.47-5.76-2.2-9.17-2.2s-6.68.76-9.4,2.27c-2.72,1.51-4.84,3.67-6.35,6.48-1.51,2.81-2.27,6.07-2.27,9.79s.77,6.91,2.3,9.72c1.53,2.81,3.67,4.98,6.42,6.51,2.74,1.53,5.84,2.3,9.3,2.3,4.28,0,7.89-1.11,10.83-3.34,2.94-2.23,4.93-5.07,5.96-8.52h-9.79c-1.43,2.9-3.82,4.34-7.19,4.34-2.33,0-4.3-.73-5.9-2.2-1.6-1.47-2.51-3.5-2.72-6.09h26.25c.17-1.04.26-2.2.26-3.5,0-3.5-.75-6.6-2.24-9.3-1.49-2.7-3.59-4.79-6.29-6.26Zm-17.92,12.96c.35-2.42,1.29-4.31,2.82-5.67,1.53-1.36,3.42-2.04,5.67-2.04,2.38,0,4.39.7,6.03,2.11,1.64,1.4,2.48,3.27,2.53,5.61h-17.05Z"/><rect class="cls-1" x="398.37" y="21.39" width="9.07" height="35.91"/><path class="cls-1" d="m402.97,6.48c-1.6,0-2.93.51-3.99,1.52-1.06,1.02-1.59,2.28-1.59,3.79s.53,2.78,1.59,3.79c1.06,1.02,2.39,1.52,3.99,1.52s2.93-.51,3.99-1.52c1.06-1.01,1.59-2.28,1.59-3.79s-.53-2.78-1.59-3.79c-1.06-1.01-2.39-1.52-3.99-1.52Z"/><path class="cls-1" d="m445.66,23.07c-2.49-1.51-5.26-2.27-8.33-2.27-2.64,0-4.98.55-7.03,1.65-2.05,1.1-3.66,2.47-4.83,4.12v-5.19h-9.07v53.02h9.07v-22.23c1.25,1.64,2.89,3,4.89,4.08,2.01,1.08,4.33,1.62,6.97,1.62,3.07,0,5.84-.78,8.33-2.33,2.49-1.56,4.45-3.75,5.9-6.58,1.45-2.83,2.17-6.08,2.17-9.76s-.72-6.9-2.17-9.69c-1.45-2.79-3.41-4.94-5.9-6.45Zm-2.53,21.84c-.89,1.6-2.05,2.83-3.5,3.69-1.45.87-3.01,1.3-4.7,1.3s-3.19-.42-4.64-1.26c-1.45-.84-2.61-2.06-3.5-3.66-.89-1.6-1.33-3.48-1.33-5.64s.44-4.04,1.33-5.64c.89-1.6,2.05-2.82,3.5-3.66,1.45-.84,2.99-1.26,4.64-1.26s3.25.41,4.7,1.23c1.45.82,2.61,2.02,3.5,3.6.89,1.58,1.33,3.45,1.33,5.61s-.44,4.11-1.33,5.7Z"/><path class="cls-1" d="m478.94,28.84v-7.45h-8.04v-8.88h-9.14v8.88h-4.28v7.45h4.28v17.31c0,7.43,3.82,11.15,11.47,11.15h5.7v-7.65h-4.21c-1.38,0-2.37-.27-2.95-.81-.58-.54-.88-1.42-.88-2.63v-17.37h8.04Z"/></g></svg>